<svg xmlns="http://www.w3.org/2000/svg" width="147" height="45" viewBox="0 0 147 45">
    <g fill="none" fill-rule="evenodd">
        <g fill="#80c7be" fill-rule="nonzero">
            <g>
                <g>
                    <g>
                        <path d="M88.659 18.865l10.58 9.19c.276.24.63.368.995.359h6.921c.358 0 .478-.239.2-.478l-10.98-9.509c3.54-.517 4.897-1.509 6.047-2.745 1.475-1.673 2.245-3.855 2.148-6.088.105-2.112-.528-4.195-1.79-5.888-1.708-2.032-4.097-3.144-9.825-3.144H77.003c-.107-.006-.211.033-.287.11-.077.075-.116.18-.11.288v27.056c-.006.108.033.213.11.289.076.076.18.115.287.109h5.49c.107.006.212-.033.288-.11.076-.075.116-.18.11-.288v-9.151h5.768zm52.357 9.549h5.61c.278 0 .477-.2.317-.478L132.503 1c-.183-.356-.555-.573-.954-.557h-5.569c-.398-.016-.77.201-.954.557l-14.48 26.936c-.159.279.04.478.319.478h5.41c.392.032.761-.192.914-.557l2.586-5.014h17.701l2.626 5.014c.153.365.522.59.914.557zM36.858.96v15.08c-.147 2.998.753 5.954 2.545 8.355 2.495 3.113 6.723 4.576 12.928 4.576 6.206 0 10.424-1.47 12.968-4.616 1.792-2.386 2.693-5.33 2.546-8.315V.96c.006-.107-.034-.213-.11-.289-.076-.076-.18-.115-.288-.109h-5.45c-.107-.006-.212.033-.288.11-.076.075-.116.18-.11.288v14.722c0 5.69-2.665 8.037-9.268 8.037-6.682 0-9.188-2.427-9.188-8.992V.96c.006-.107-.034-.213-.11-.289-.076-.076-.181-.115-.288-.109h-5.49c-.107-.006-.212.033-.288.11-.076.075-.116.18-.11.288zM6.422 14.33c0-6.088 3.5-8.992 10.382-8.992 4.412-.086 8.734 1.252 12.332 3.82.273.205.477.119.477-.24l-.04-4.973c.014-.379-.186-.733-.517-.915C25.307.96 21.082-.085 16.804.005c-5.21 0-9.372 1.251-12.251 3.66C1.476 6.389-.194 10.375.018 14.489c-.12 3.315.89 6.572 2.864 9.23 2.774 3.51 7.439 5.253 13.803 5.253 4.229.155 8.416-.879 12.093-2.984.329-.19.54-.535.557-.915l.397-4.775c.04-.358-.19-.426-.477-.239-3.413 2.336-7.447 3.583-11.575 3.581-7.678 0-11.258-3.063-11.258-9.31zm91.226-1.95c-.943 1.321-2.983 1.671-7.955 1.671H82.85V5.655h9.865c2.864 0 4.173.52 4.893 1.552.51.777.76 1.696.716 2.626.052.9-.185 1.793-.677 2.546zm24.633 5.65l6.364-12.175 6.325 12.175h-12.69zM22.775 44.08c-.562.292-1.193.44-1.832.432-1.179.042-2.287-.539-2.89-1.515-.604-.976-.606-2.192-.005-3.17.6-.978 1.708-1.562 2.887-1.522.606-.003 1.204.134 1.744.399v1.099c-.51-.347-1.12-.536-1.744-.542-.805-.004-1.55.41-1.948 1.085-.397.674-.386 1.503.03 2.167.417.663 1.173 1.059 1.978 1.034.643-.001 1.269-.206 1.78-.583v1.115zM25.88 41.408c0-1.715 1.391-3.105 3.106-3.105 1.715 0 3.106 1.39 3.106 3.105s-1.39 3.105-3.106 3.105c-.828.017-1.628-.304-2.214-.89-.586-.586-.908-1.386-.891-2.215zm5.155 0c-.05-1.12-.988-1.993-2.108-1.96-1.12.032-2.007.958-1.99 2.079.015 1.12.928 2.02 2.05 2.02.558-.002 1.091-.23 1.478-.634.386-.404.592-.947.57-1.505zM35.34 42.95c.556.383 1.213.6 1.89.622.604 0 1.041-.257 1.041-.814 0-.667-.638-.759-1.427-.992-.849-.258-1.647-.64-1.647-1.715 0-1.091.823-1.748 2.05-1.748.63-.005 1.25.146 1.805.441v1.066c-.541-.35-1.168-.545-1.814-.567-.57 0-.974.226-.974.733 0 .64.638.724 1.369.95.899.274 1.705.666 1.705 1.772 0 1.133-.857 1.816-2.117 1.816-.654-.004-1.299-.161-1.88-.458l-.001-1.107zM42.444 38.303h1.067l2.047 2.89 2.047-2.89h1.05v6.211h-1.102v-3.072c0-.471 0-.918.009-1.347l-.017-.009c-.261.395-.539.782-.833 1.202l-1.18 1.665-1.18-1.665c-.295-.42-.572-.807-.833-1.202l-.017.009c.009.43.009.876.009 1.347v3.072h-1.067v-6.211zM51.761 38.303L55.808 38.303 55.808 39.272 52.951 39.272 52.951 40.816 55.433 40.816 55.433 41.742 52.951 41.742 52.951 43.545 55.901 43.545 55.901 44.514 51.761 44.514zM61.042 39.272L59.007 39.272 59.007 38.303 64.183 38.303 64.183 39.272 62.132 39.272 62.132 44.514 61.042 44.514zM67.346 38.303L68.267 38.303 68.267 44.514 67.346 44.514zM76.606 44.08c-.562.292-1.193.441-1.832.432-1.178.042-2.287-.539-2.89-1.515-.604-.976-.606-2.192-.005-3.17.6-.978 1.708-1.562 2.887-1.522.606-.003 1.204.134 1.744.399v1.099c-.51-.347-1.119-.536-1.744-.542-.805-.004-1.55.41-1.948 1.085-.397.674-.385 1.503.03 2.167.417.663 1.173 1.059 1.978 1.034.644-.001 1.269-.206 1.78-.583v1.115zM79.854 42.95c.557.383 1.213.6 1.89.622.604 0 1.041-.257 1.041-.814 0-.667-.638-.759-1.427-.992-.848-.258-1.647-.64-1.647-1.715 0-1.091.824-1.748 2.05-1.748.63-.005 1.25.146 1.805.441v1.066c-.541-.35-1.168-.545-1.814-.567-.57 0-.974.226-.974.733 0 .64.638.724 1.37.95.898.274 1.704.666 1.704 1.772 0 1.133-.856 1.816-2.116 1.816-.655-.004-1.3-.161-1.882-.458v-1.107zM96.275 43.952c-.617.367-1.32.559-2.033.558-.826.044-1.634-.263-2.23-.848-.595-.584-.926-1.395-.913-2.238-.01-.85.324-1.668.926-2.258.601-.59 1.415-.902 2.25-.86.635-.006 1.261.16 1.812.483v1.105c-.52-.402-1.152-.623-1.804-.632-.764-.011-1.475.398-1.859 1.07-.384.672-.383 1.504.004 2.175.387.67 1.099 1.077 1.863 1.063.332.005.662-.066.964-.208v-1.156h-1.176v-.897h2.196v2.643zM100.415 38.311h1.9c.626-.04 1.253.065 1.827.309.59.29.954.875.936 1.507.02.83-.593 1.551-1.45 1.705l1.964 2.682h-1.342l-1.819-2.561h-.872v2.561h-1.144v-6.203zm2.053 2.802c.396.033.793-.054 1.134-.249.233-.18.356-.457.33-.741-.028-.284-.202-.537-.465-.673-.385-.149-.802-.207-1.215-.171h-.693v1.834h.909zM107.663 41.408c0-1.715 1.39-3.105 3.105-3.105s3.105 1.39 3.105 3.105-1.39 3.105-3.105 3.105c-.829.017-1.628-.304-2.214-.89-.587-.587-.908-1.386-.891-2.215zm5.154 0c-.049-1.12-.988-1.993-2.108-1.96-1.12.032-2.007.958-1.99 2.079.015 1.12.928 2.02 2.049 2.02.559-.002 1.092-.23 1.479-.634.386-.404.592-.947.57-1.505zM123.176 41.444c.064.726-.09 1.454-.44 2.093-.506.662-1.31 1.027-2.144.971-.834.058-1.64-.315-2.135-.987-.337-.614-.487-1.313-.432-2.01v-3.208h1.075v3.14c-.045.494.037.991.238 1.444.272.445.777.694 1.297.642.502.05.989-.189 1.253-.617.206-.455.29-.955.246-1.452v-3.157h1.042v3.14zM126.296 38.312h1.984c.723-.043 1.448.068 2.11.325.684.308 1.104.931 1.08 1.602.024.644-.356 1.247-.99 1.577-.726.298-1.528.425-2.328.368h-.609v2.33h-1.247v-6.202zm1.955 2.964c.502.048 1.01-.02 1.472-.197.327-.165.52-.476.5-.806.022-.354-.208-.684-.578-.831-.452-.145-.935-.2-1.415-.162h-.687v1.996h.708z" transform="translate(-1087 -6791) translate(0 6674) translate(985 117) translate(102)"/>
                    </g>
                </g>
            </g>
        </g>
    </g>
</svg>
