<?xml version="1.0" encoding="UTF-8" standalone="no"?>
<svg
   width="259.99997"
   height="81.007492"
   viewBox="0 0 259.99996 81.007492"
   version="1.1"
   id="svg33"
   sodipodi:docname="Logo_orig.svg"
   inkscape:version="1.2.2 (b0a8486541, 2022-12-01)"
   inkscape:export-filename="Logo2.svg"
   inkscape:export-xdpi="96"
   inkscape:export-ydpi="96"
   xmlns:inkscape="http://www.inkscape.org/namespaces/inkscape"
   xmlns:sodipodi="http://sodipodi.sourceforge.net/DTD/sodipodi-0.dtd"
   xmlns="http://www.w3.org/2000/svg"
   xmlns:svg="http://www.w3.org/2000/svg">
  <sodipodi:namedview
     id="namedview35"
     pagecolor="#ffffff"
     bordercolor="#666666"
     borderopacity="1.0"
     inkscape:showpageshadow="2"
     inkscape:pageopacity="0.0"
     inkscape:pagecheckerboard="0"
     inkscape:deskcolor="#d1d1d1"
     showgrid="false"
     inkscape:zoom="2.95"
     inkscape:cx="129.49153"
     inkscape:cy="40"
     inkscape:window-width="1622"
     inkscape:window-height="981"
     inkscape:window-x="0"
     inkscape:window-y="32"
     inkscape:window-maximized="1"
     inkscape:current-layer="svg33" />
  <defs
     id="defs4">
    <clipPath
       id="clip-path">
      <rect
         id="Rechteck_26"
         data-name="Rechteck 26"
         width="258.76501"
         height="80"
         fill="#1f2124"
         x="0"
         y="0" />
    </clipPath>
  </defs>
  <g
     id="Logo"
     clip-path="url(#clip-path)"
     transform="translate(1.3781213e-4)">
    <path
       id="Pfad_1"
       data-name="Pfad 1"
       d="m 66.639713,32.772 c -2.215947,-2.631 -3.131055,-5.357 -2.719749,-8.1 0.631721,-4.208 4.164242,-7.65 6.31623,-9.394 a 0.16137429,0.164 0 0 0 0.02066,-0.232 c -0.491998,-0.625 -0.996785,-1.237 -1.520269,-1.83 a 0.15940631,0.162 0 0 0 -0.22041,-0.022 c -2.477689,2.016 -6.4471,5.963 -7.214612,11.051 -0.539229,3.571 0.583506,7.04 3.333757,10.307 a 25.755928,26.175 0 0 0 14.081875,8.82 0.16334229,0.166 0 0 0 0.196798,-0.152 c 0.02656,-0.472 0.08955,-1.692 0.0984,-2.456 A 0.15448639,0.157 0 0 0 78.889399,40.609 22.856111,23.228 0 0 1 66.639713,32.772"
       fill="#1f2124"
       inkscape:export-filename="Logo2.svg"
       inkscape:export-xdpi="97.571152"
       inkscape:export-ydpi="97.571152"
       style="stroke-width:0.991956" />
    <path
       id="Pfad_2"
       data-name="Pfad 2"
       d="m 51.806068,52.139 c -8.236977,4.549 -12.135545,4.105 -13.955925,2.931 -2.104756,-1.358 -2.214962,-4.234 -2.164776,-5.406 0.186959,-4.38 2.402901,-8.232 4.969148,-12.693 3.199934,-5.561 6.825933,-11.866 7.497014,-20.936 0.276501,-3.744 -1.108956,-9.416 -8.619749,-16 L 39.446175,0 c -1.220149,0 -2.426519,0.06 -3.618132,0.17 a 0.13185462,0.134 0 0 0 -0.06101,0.24 c 8.477073,6.6 9.99635,12.013 9.741499,15.419 -0.623851,8.435 -4.082576,14.45 -7.135894,19.756 -2.632173,4.577 -5.116745,8.9 -5.335192,13.96 -0.148583,3.486 1.092228,6.341 3.404603,7.833 a 8.2015537,8.335 0 0 0 4.480105,1.2 c 3.212726,0 7.273651,-1.347 12.140464,-4.035 6.380189,-3.524 13.903774,-2.638 22.369035,2.6 a 0.12791864,0.13 0 0 0 0.184007,-0.058 c 0.328654,-0.758 0.640576,-1.525 0.924951,-2.308 a 0.13480657,0.137 0 0 0 -0.05707,-0.163 C 67.290127,49.014 58.989193,48.172 51.80607,52.139"
       fill="#bfce40"
       style="stroke-width:0.991956" />
    <path
       id="Pfad_3"
       data-name="Pfad 3"
       d="m 26.207577,69.267 c -3.148766,-11.463 0.825567,-21.361 5.932476,-32.19 0.491992,-1.048 0.983987,-2.06 1.464177,-3.045 3.330804,-6.863 6.207989,-12.79 4.75562,-20.246 C 37.126911,7.445 32.010164,3.752 27.968919,1.777 a 0.10528688,0.107 0 0 0 -0.07773,-0.005 q -1.74363,0.547 -3.416411,1.25 a 0.10528688,0.107 0 0 0 0,0.2 c 3.542362,1.326 10.021934,4.6 11.287345,11.1 1.273281,6.542 -1.287057,11.817 -4.526351,18.5 -0.482157,0.994 -0.977104,2.015 -1.475986,3.073 -5.348967,11.339 -9.500421,21.734 -6.100737,34.118 a 27.764251,28.216 0 0 0 4.368915,9.5 0.1043029,0.106 0 0 0 0.0561,0.04 38.867591,39.5 0 0 0 4.38269,1.071 0.10922287,0.111 0 0 0 0.08561,-0.2 C 30.6267,78.839 27.95123,75.614 26.208586,69.268"
       fill="#1f2124"
       style="stroke-width:0.991956" />
    <path
       id="Pfad_4"
       data-name="Pfad 4"
       d="M 28.625242,22.807 C 29.914266,12.634 22.866933,8.435 17.732473,6.739 a 0.11119082,0.113 0 0 0 -0.0984,0.014 q -1.288041,0.878 -2.500318,1.856 a 0.11611079,0.118 0 0 0 0.05117,0.206 c 10.550337,2.4 11.338514,9.487 10.813064,13.64 C 23.010595,46.019 9.6086562,53.649 2.9795174,56.009 a 0.11315881,0.115 0 0 0 -0.064943,0.155 q 0.4703467,1.169 1.0085893,2.3 A 0.11414279,0.116 0 0 0 4.0638741,58.525 33.206698,33.747 0 0 0 15.196733,51.736 C 22.524505,45.017 27.042001,35.285 28.623272,22.808"
       fill="#1f2124"
       style="stroke-width:0.991956" />
    <path
       id="Pfad_5"
       data-name="Pfad 5"
       d="m 5.8547359,44.234 a 7.1516367,7.268 0 0 0 2.1165617,0.327 c 2.5721504,0 5.2082574,-1.4 7.6042724,-4.095 3.941861,-4.427 6.906623,-12.479 4.82155,-17.767 C 18.013894,16.656 12.50257,15.416 8.6345069,15.25 a 0.09839895,0.1 0 0 0 -0.077735,0.037 C 7.9171794,16.109 7.3041535,16.952 6.726552,17.824 a 0.09839895,0.1 0 0 0 0.078719,0.151 c 4.318732,-0.124 9.123551,0.644 11.134826,5.747 1.488778,3.776 -0.491995,10.6 -4.321683,14.905 -1.350033,1.515 -4.0540368,3.922 -6.991245,3 C 4.2311531,40.879 2.1342712,36.981 0.77833359,33.081 A 0.09839895,0.1 0 0 0 0.5972795,33.095 40.540372,41.2 0 0 0 -2.2064791e-6,38.045 0.09839895,0.1 0 0 0 0.01180565,38.098 C 1.398247,40.823 3.3317867,43.445 5.8547359,44.234"
       fill="#1f2124"
       style="stroke-width:0.991956" />
    <path
       id="Pfad_6"
       data-name="Pfad 6"
       d="m 8.2960143,34.282 a 4.3187303,4.389 0 0 0 0.6966647,0.058 4.3718659,4.443 0 0 0 3.257005,-1.543 v 0 c 2.245465,-2.5 2.550503,-5.272 0.815726,-7.423 -2.008321,-2.492 -6.3231154,-3.435 -8.710274,-1.9 -0.8924787,0.574 -2.7837069,2.336 -1.0351573,6.3 1.0823886,2.451 2.9873926,4.18 4.9760356,4.51 m -2.5357413,-8.5 a 2.7030197,2.747 0 0 1 1.416945,-0.332 5.2771365,5.363 0 0 1 3.846416,1.659 c 0.318812,0.4 1.290995,1.6 -0.721264,3.838 A 1.6727824,1.7 0 0 1 8.7171619,31.595 4.7497179,4.827 0 0 1 5.7337054,28.65 C 5.2869742,27.637 4.9297858,26.317 5.7592892,25.784"
       fill="#1f2124"
       style="stroke-width:0.991956" />
    <path
       id="Pfad_7"
       data-name="Pfad 7"
       d="m 70.427087,23.977 a 7.9594921,8.089 0 0 0 1.377585,7.713 11.799019,11.991 0 0 0 6.69113,4.271 0.17711815,0.18 0 0 0 0.216479,-0.193 q -0.152521,-1.313 -0.386707,-2.6 A 0.17023022,0.173 0 0 0 78.213398,33.037 8.7397959,8.882 0 0 1 73.901555,30.018 5.2387609,5.324 0 0 1 72.92347,24.894 4.9632438,5.044 0 0 1 74.69465,22.5 0.16629424,0.169 0 0 0 74.7478,22.287 q -0.526434,-1.068 -1.110923,-2.1 a 0.17318216,0.176 0 0 0 -0.244028,-0.06 7.6298557,7.754 0 0 0 -2.96378,3.847"
       fill="#1f2124"
       style="stroke-width:0.991956" />
    <path
       id="Pfad_8"
       data-name="Pfad 8"
       d="m 58.328936,43.183 a 14.169451,14.4 0 0 1 -3.658475,-0.011 4.9504518,5.031 0 0 1 -3.831655,-2.929 c -1.139459,-2.717 -0.06495,-6.85 3.026751,-11.638 3.577788,-5.542 5.541832,-15.158 0.688793,-25.494 A 0.14169451,0.144 0 0 0 54.4835,3.042 q -1.65802,-0.7 -3.389844,-1.246 a 0.13087062,0.133 0 0 0 -0.154488,0.191 c 3.278657,5.955 6.33099,16.419 0.718315,25.112 -4.618849,7.154 -4.317749,11.682 -3.252088,14.221 a 7.5629442,7.686 0 0 0 5.815381,4.536 16.604826,16.875 0 0 0 4.31676,0.042 c 3.4971,-0.284 8.238946,-0.648 19.132696,4.574 a 0.13382259,0.136 0 0 0 0.186959,-0.088 c 0.196795,-0.815 0.361123,-1.641 0.506753,-2.474 a 0.13579058,0.138 0 0 0 -0.07774,-0.15 C 67.108092,42.481 62.067113,42.881 58.329917,43.184"
       fill="#1f2124"
       style="stroke-width:0.991956" />
    <path
       id="Pfad_9"
       data-name="Pfad 9"
       d="m 58.553284,56.823 a 19.651257,19.971 0 0 0 -12.332342,6.815 16.072488,16.334 0 0 0 -3.806072,12.874 15.350237,15.6 0 0 0 1.26246,4.377 0.19679793,0.2 0 0 0 0.203684,0.117 c 0.80097,-0.092 1.592098,-0.214 2.376336,-0.355 a 0.19679793,0.2 0 0 0 0.133823,-0.287 12.607859,12.813 0 0 1 -1.350035,-4.234 13.406859,13.625 0 0 1 3.200919,-10.728 17.372337,17.655 0 0 1 23.877492,-2.24 0.18892601,0.192 0 0 0 0.281421,-0.04 c 0.420165,-0.652 0.818679,-1.321 1.202436,-2 a 0.20270185,0.206 0 0 0 -0.04526,-0.261 19.529244,19.847 0 0 0 -15.004858,-4.04"
       fill="#1f2124"
       style="stroke-width:0.991956" />
    <path
       id="Pfad_10"
       data-name="Pfad 10"
       d="m 63.028468,64.373 a 8.1769539,8.31 0 0 0 -7.136875,9.189 7.57672,7.7 0 0 0 1.228018,3.247 0.17908612,0.182 0 0 0 0.228286,0.059 q 1.039093,-0.545 2.03981,-1.145 a 0.17219819,0.175 0 0 0 0.04625,-0.256 4.9051884,4.985 0 0 1 -0.922979,-2.286 5.5024701,5.592 0 0 1 4.882556,-6.111 5.8202985,5.915 0 0 1 4.661159,1.364 0.16727824,0.17 0 0 0 0.235173,-0.011 c 0.528403,-0.577 1.046964,-1.166 1.541911,-1.774 a 0.18400606,0.187 0 0 0 -0.01869,-0.256 8.4672308,8.605 0 0 0 -6.789528,-2.02"
       fill="#1f2124"
       style="stroke-width:0.991956" />
    <path
       id="Pfad_11"
       data-name="Pfad 11"
       d="m 111.14262,21.069 h -7.54131 a 1.0184293,1.035 0 0 0 -1.02433,1.051 v 1.756 a 1.048933,1.066 0 0 0 1.02433,1.093 h 4.57262 v 1.118 a 4.8215491,4.9 0 0 1 -4.90915,4.768 c -3.07691,0 -5.143313,-2.415 -5.143313,-6.008 v -5.3 c 0,-3.615 2.053593,-6.041 5.109873,-6.041 a 4.5450479,4.619 0 0 1 4.71427,4.163 c 0.12697,0.615 0.4251,0.928 0.88561,0.928 h 2.54754 a 0.74389614,0.756 0 0 0 0.75474,-0.811 2.4983497,2.539 0 0 0 -0.0355,-0.518 8.644349,8.785 0 0 0 -8.86572,-7.766 c -5.438515,0 -9.235736,4.1 -9.235736,9.972 v 5.373 c 0,5.871 3.714549,9.972 9.034996,9.972 a 7.0847252,7.2 0 0 0 5.4444,-2.281 v 0.884 a 1.0194132,1.036 0 0 0 1.02434,1.053 h 1.64328 a 1.0184293,1.035 0 0 0 1.02334,-1.053 v -11.3 a 1.0174453,1.034 0 0 0 -1.02334,-1.051"
       fill="#1f2124"
       style="stroke-width:0.991956" />
    <path
       id="Pfad_12"
       data-name="Pfad 12"
       d="m 141.03621,16.387 c -4.39156,0 -7.45962,3.337 -7.45962,8.112 v 2.239 c 0,4.755 3.06806,8.077 7.45962,8.077 4.41124,0 7.49308,-3.322 7.49308,-8.077 v -2.239 c 0,-4.776 -3.08184,-8.112 -7.49308,-8.112 m -3.33277,7.7 c 0,-2.437 1.30871,-4.01 3.33277,-4.01 2.07721,0 3.36721,1.535 3.36721,4.01 v 3.065 c 0,2.474 -1.29,4.01 -3.36721,4.01 -2.02505,0 -3.33277,-1.574 -3.33277,-4.01 z"
       fill="#1f2124"
       style="stroke-width:0.991956" />
    <path
       id="Pfad_13"
       data-name="Pfad 13"
       d="m 161.1588,20.106 c -2.71285,-0.776 -5.05576,-1.447 -5.05576,-3.8 0,-2.14 1.20835,-3.012 4.17116,-3.012 3.13892,0 3.75295,1.721 3.94185,3.028 a 1.0056374,1.022 0 0 0 1.05287,0.967 h 2.01029 a 1.0203972,1.037 0 0 0 1.02434,-1.053 c 0,-3.352 -2.47277,-6.734 -7.9959,-6.734 -5.29486,0 -8.33141,2.481 -8.33141,6.8 0,5.447 4.2813,6.675 7.72133,7.661 2.67352,0.768 4.98292,1.43 4.98292,3.7 0,2.314 -1.39922,3.391 -4.40629,3.391 -4.05306,0 -4.73695,-2.8 -4.84712,-4.026 a 1.043029,1.06 0 0 0 -0.98401,-0.934 h -2.04473 a 1.049917,1.067 0 0 0 -1.02434,1.087 c 0,3.068 2.36159,7.631 8.86871,7.631 7.94571,0 8.5607,-5.472 8.5607,-7.149 0,-5.372 -4.06387,-6.535 -7.64756,-7.56"
       fill="#1f2124"
       style="stroke-width:0.991956" />
    <path
       id="Pfad_14"
       data-name="Pfad 14"
       d="m 181.0531,16.387 a 5.6195646,5.711 0 0 0 -4.4063,1.8 v -0.365 a 1.0823885,1.1 0 0 0 -1.0578,-1.087 h -2.04373 a 1.048933,1.066 0 0 0 -1.02435,1.087 v 22.451 a 1.0479491,1.065 0 0 0 1.02435,1.085 h 2.03882 a 1.0823885,1.1 0 0 0 1.05779,-1.085 v -7.215 a 5.6018528,5.693 0 0 0 4.4063,1.758 c 4.01961,0 6.42053,-3.071 6.42053,-8.216 v -2.1 c 0,-5.155 -2.34089,-8.112 -6.42053,-8.112 m 2.29466,7.7 v 3.064 c 0,2.511 -1.24671,4.01 -3.33373,4.01 -2.08706,0 -3.36723,-1.535 -3.36723,-4.01 v -3.169 c 0,-2.374 1.32247,-3.907 3.36723,-3.907 2.45996,0 3.33373,2.071 3.33373,4.01"
       fill="#1f2124"
       style="stroke-width:0.991956" />
    <path
       id="Pfad_15"
       data-name="Pfad 15"
       d="m 199.78826,16.387 a 5.4827901,5.572 0 0 0 -4.37184,1.813 v -7.268 a 1.0823885,1.1 0 0 0 -1.05781,-1.086 h -2.04867 a 1.0479491,1.065 0 0 0 -1.02138,1.086 v 22.486 a 1.0184293,1.035 0 0 0 1.02237,1.053 h 2.04571 a 1.048933,1.066 0 0 0 1.0578,-1.053 v -9.332 c 0,-2.474 1.26342,-4.011 3.29833,-4.011 2.0349,0 3.30029,1.536 3.30029,4.011 v 9.332 a 1.0194132,1.036 0 0 0 1.02335,1.053 h 2.04472 a 1.0479491,1.065 0 0 0 1.0578,-1.053 v -8.919 c 0,-5.155 -2.3173,-8.112 -6.35461,-8.112"
       fill="#1f2124"
       style="stroke-width:0.991956" />
    <path
       id="Pfad_16"
       data-name="Pfad 16"
       d="m 236.78824,16.731 h -0.43589 a 5.2446648,5.33 0 0 0 -4.20559,2.024 v -0.937 a 1.048933,1.066 0 0 0 -1.02333,-1.087 h -1.87747 a 1.048933,1.066 0 0 0 -1.02433,1.087 v 15.6 a 1.0194132,1.036 0 0 0 1.02433,1.053 h 2.01029 a 1.0479491,1.065 0 0 0 1.05682,-1.053 v -7.783 c 0,-3.119 1.34707,-4.7 4.00482,-4.7 h 0.46937 a 1.0479491,1.065 0 0 0 1.05778,-1.053 v -2.064 a 1.0823885,1.1 0 0 0 -1.05778,-1.087"
       fill="#1f2124"
       style="stroke-width:0.991956" />
    <path
       id="Pfad_18"
       data-name="Pfad 18"
       d="m 217.15373,16.386 c -4.34237,0 -7.4941,3.412 -7.4941,8.112 v 2.239 c 0,4.755 3.09565,8.078 7.52753,8.078 2.47674,0 5.41196,-0.836 6.67443,-4.332 a 1.4759846,1.5 0 0 0 0.14661,-0.555 0.79211165,0.805 0 0 0 -0.7872,-0.844 h -2.17856 a 1.1296202,1.148 0 0 0 -0.94955,0.551 c -1.27919,1.636 -1.82038,1.525 -2.90573,1.525 -2.00141,0 -3.40066,-1.578 -3.40066,-3.837 v -0.222 h 9.70212 a 1.048933,1.066 0 0 0 1.02337,-1.087 V 24.43 c 0,-4.585 -3.16353,-8.044 -7.35926,-8.044 m -3.36721,7.458 c 0,-2.255 1.35297,-3.769 3.36721,-3.769 2.04473,0 3.36624,1.466 3.36624,3.735 v 0.153 h -6.73345 z"
       fill="#1f2124"
       style="stroke-width:0.991956" />
    <path
       id="Pfad_19"
       data-name="Pfad 19"
       d="m 123.23977,16.386 c -4.34233,0 -7.49405,3.412 -7.49405,8.112 v 2.239 c 0,4.755 3.09562,8.078 7.52752,8.078 2.47669,0 5.41193,-0.836 6.67439,-4.332 a 1.4759846,1.5 0 0 0 0.14661,-0.555 0.79211165,0.805 0 0 0 -0.78719,-0.844 h -2.17854 a 1.1296202,1.148 0 0 0 -0.94955,0.551 c -1.27919,1.636 -1.82039,1.525 -2.90572,1.525 -2.00144,0 -3.40067,-1.578 -3.40067,-3.837 v -0.222 h 9.70215 a 1.048933,1.066 0 0 0 1.02333,-1.087 V 24.43 c 0,-4.585 -3.16353,-8.044 -7.35828,-8.044 m -3.3672,7.458 c 0,-2.255 1.35298,-3.769 3.3672,-3.769 2.04473,0 3.36625,1.466 3.36625,3.735 v 0.153 h -6.73345 z"
       fill="#1f2124"
       style="stroke-width:0.991956" />
    <path
       id="Pfad_20"
       data-name="Pfad 20"
       d="m 95.891743,70.594 a 0.49199481,0.5 0 0 1 -0.503791,0.345 h -1.672783 a 0.35325227,0.359 0 0 1 -0.368012,-0.379 3.311125,3.365 0 0 1 0.196797,-0.688 l 7.944736,-22.488 a 0.71634446,0.728 0 0 1 0.63763,-0.55 h 1.9109 a 0.68879275,0.7 0 0 1 0.6022,0.516 l 8.11202,22.729 a 1.4572886,1.481 0 0 1 0.13481,0.482 0.35423626,0.36 0 0 1 -0.369,0.379 h -1.7092 c -0.33454,0 -0.46937,-0.138 -0.53627,-0.345 l -2.1451,-6.06 H 97.968958 Z m 7.138847,-20.732 -4.224272,12.26 h 8.482002 z"
       fill="#1f2124"
       style="stroke-width:0.991956" />
    <path
       id="Pfad_21"
       data-name="Pfad 21"
       d="m 128.77176,53.72 a 0.59826571,0.608 0 0 1 0.56975,0.62 v 16.049 a 0.53922632,0.548 0 0 1 -0.56975,0.55 h -1.40414 a 0.5215145,0.53 0 0 1 -0.56973,-0.55 V 68.87 a 5.0026032,5.084 0 0 1 -4.62474,2.41 c -3.85431,0 -5.90396,-2.789 -5.90396,-7.611 V 54.34 a 0.57661791,0.586 0 0 1 0.56974,-0.62 h 1.40709 a 0.59728169,0.607 0 0 1 0.56974,0.62 v 9.471 c 0,3.375 1.34117,5.165 3.85526,5.165 2.47966,0 4.12194,-1.791 4.12194,-5.165 V 54.34 a 0.57661791,0.586 0 0 1 0.56973,-0.62 z"
       fill="#1f2124"
       style="stroke-width:0.991956" />
    <path
       id="Pfad_22"
       data-name="Pfad 22"
       d="m 146.49836,66.256 c 0,3.684 -2.88212,5.028 -6.29754,5.028 -3.82084,0 -6.00236,-2.274 -6.33592,-4.65 a 1.3382259,1.36 0 0 1 0.0355,-0.378 0.44181134,0.449 0 0 1 0.43592,-0.345 h 1.40709 c 0.33556,0 0.43592,0.138 0.50282,0.413 0.33455,1.275 1.44057,2.72 3.98811,2.72 2.14607,0 3.78835,-0.688 3.78835,-2.754 0,-4.443 -9.88809,-0.9 -9.88809,-8.128 0,-3.478 3.05034,-4.787 5.89901,-4.787 5.162,0 5.79966,3.652 6.06826,4.581 v 0.241 a 0.45361921,0.461 0 0 1 -0.46937,0.447 h -1.44055 c -0.3021,0 -0.40247,-0.136 -0.47036,-0.447 -0.23419,-1.068 -0.80293,-2.547 -3.75392,-2.547 -1.50842,0 -3.35243,0.516 -3.35243,2.445 0,4.684 9.88808,1.137 9.88808,8.162"
       fill="#1f2124"
       style="stroke-width:0.991956" />
    <path
       id="Pfad_23"
       data-name="Pfad 23"
       d="m 156.9237,70.938 c -4.59325,0 -5.36272,-2.032 -5.36272,-6.062 v -8.78 h -2.58199 A 0.52348248,0.532 0 0 1 148.4437,55.51 v -1.17 a 0.55103421,0.56 0 0 1 0.53529,-0.621 c 1.77708,0 2.64888,-0.413 2.64888,-2.584 v -1.273 a 0.55103421,0.56 0 0 1 0.53529,-0.619 h 1.34119 a 0.57563393,0.585 0 0 1 0.56874,0.619 v 3.857 h 3.78737 a 0.57760191,0.587 0 0 1 0.57072,0.621 v 1.17 a 0.55005019,0.559 0 0 1 -0.57072,0.586 h -3.78737 v 8.539 c 0,3.065 0.33555,3.892 3.11827,3.892 h 0.6701 a 0.57760191,0.587 0 0 1 0.5707,0.62 v 1.24 a 0.52249847,0.531 0 0 1 -0.5707,0.55 z"
       fill="#1f2124"
       style="stroke-width:0.991956" />
    <path
       id="Pfad_24"
       data-name="Pfad 24"
       d="m 163.18879,70.939 a 0.5215145,0.53 0 0 1 -0.56975,-0.55 V 54.341 a 0.57661791,0.586 0 0 1 0.56975,-0.621 h 1.27228 a 0.57661791,0.586 0 0 1 0.57073,0.621 v 2.307 a 4.9494679,5.03 0 0 1 4.72314,-2.927 h 0.46837 a 0.60416963,0.614 0 0 1 0.60319,0.621 v 1.377 a 0.57661791,0.586 0 0 1 -0.60319,0.586 h -0.50185 c -3.35244,0 -4.59225,2.858 -4.59225,5.681 v 8.4 a 0.5215145,0.53 0 0 1 -0.56973,0.55 z"
       fill="#1f2124"
       style="stroke-width:0.991956" />
    <path
       id="Pfad_25"
       data-name="Pfad 25"
       d="m 174.71916,48.519 a 1.70919,1.737 0 1 1 1.70919,1.756 1.6462147,1.673 0 0 1 -1.70919,-1.756 m 1.00466,22.42 a 0.5215145,0.53 0 0 1 -0.56875,-0.55 V 54.341 a 0.57661791,0.586 0 0 1 0.56875,-0.621 h 1.40809 a 0.59826571,0.608 0 0 1 0.56974,0.621 v 16.048 a 0.54021033,0.549 0 0 1 -0.56974,0.55 z"
       fill="#1f2124"
       style="stroke-width:0.991956" />
    <path
       id="Pfad_26"
       data-name="Pfad 26"
       d="m 195.26291,70.388 a 0.55103421,0.56 0 0 1 -0.6032,0.551 h -1.27328 a 0.52249847,0.531 0 0 1 -0.56974,-0.551 v -1.653 a 4.9091242,4.989 0 0 1 -4.62475,2.549 h -0.63761 c -3.08482,0 -5.43164,-1.654 -5.43164,-5.062 0,-4.065 3.08484,-5.063 6.19915,-5.063 h 4.49189 v -1.172 c 0,-2.134 -0.36898,-4.27 -3.85428,-4.27 -2.64693,0 -3.317,1.067 -3.58762,2.479 A 0.48412289,0.492 0 0 1 184.87,58.643 h -1.44155 a 0.42705151,0.434 0 0 1 -0.46937,-0.482 0.6543531,0.665 0 0 1 0.0345,-0.241 c 0.30111,-2.066 1.47599,-4.547 5.96592,-4.547 5.73174,0 6.29754,3.719 6.29754,6.682 z m -6.87121,-7.095 c -2.78174,0 -3.81986,0.895 -3.81986,2.928 0,1.963 1.50846,2.859 3.28358,2.859 h 0.6701 c 3.52071,0 4.29117,-2.652 4.29117,-4.685 v -1.1 z"
       fill="#1f2124"
       style="stroke-width:0.991956" />
    <path
       id="path1606"
       data-name="Pfad 18"
       d="m 248.64139,16.386 c -4.34237,0 -7.49407,3.412 -7.49407,8.112 v 2.239 c 0,4.755 3.09565,8.078 7.52751,8.078 2.47673,0 5.41195,-0.836 6.67442,-4.332 a 1.4759846,1.5 0 0 0 0.1466,-0.555 0.79211165,0.805 0 0 0 -0.78717,-0.844 h -2.17857 a 1.1296202,1.148 0 0 0 -0.94955,0.551 c -1.27919,1.636 -1.82038,1.525 -2.90573,1.525 -2.00141,0 -3.40066,-1.578 -3.40066,-3.837 v -0.222 h 9.70214 a 1.048933,1.066 0 0 0 1.02334,-1.087 V 24.43 c 0,-4.585 -3.16352,-8.044 -7.35924,-8.044 m -3.36724,7.458 c 0,-2.255 1.353,-3.769 3.36724,-3.769 2.04471,0 3.36621,1.466 3.36621,3.735 v 0.153 h -6.73345 z"
       fill="#1f2124"
       style="stroke-width:0.991956" />
  </g>
</svg>
