<?xml version="1.0" encoding="utf-8"?>
<!-- Generator: Adobe Illustrator 28.3.0, SVG Export Plug-In . SVG Version: 6.00 Build 0)  -->
<svg version="1.1" id="Ebene_1" xmlns="http://www.w3.org/2000/svg" xmlns:xlink="http://www.w3.org/1999/xlink" x="0px" y="0px"
	 viewBox="0 0 894.9 184.6" style="enable-background:new 0 0 894.9 184.6;" xml:space="preserve">
<style type="text/css">
	.st0{enable-background:new    ;}
	.st1{fill:#E2001A;}
	.st2{fill:#FFFFFF;}
	.st3{fill-rule:evenodd;clip-rule:evenodd;fill:#FFFFFF;}
</style>
<g class="st0">
	<g id="Ebene_1_00000160906239036018672030000006718428592364172160_">
		<rect y="0" class="st1" width="894.9" height="184.6"/>
	</g>
</g>
<g>
	<g>
		<path class="st2" d="M761.4,34.8c-31.6,0-57.2,25.6-57.2,57.2c0,31.6,25.6,57.2,57.2,57.2c31.6,0,57.2-25.6,57.2-57.2
			C818.5,60.4,793,34.8,761.4,34.8 M761.2,140.4c-26.6,0-48.1-21.5-48.1-48.1c0-26.6,21.5-48.1,48.1-48.1
			c26.6,0,48.1,21.5,48.1,48.1C809.3,118.8,787.8,140.4,761.2,140.4"/>
		<path class="st2" d="M806.4,113.1h1.5c1.5,0,2,1.1,1.3,2.3l-3.1,5.8c-0.5,0.9-0.8,1.1-1.8,1.1h-2.9h-80.8h-3.3
			c-2.6,0-4.4-0.7-2.4-4.4l1.7-3.1l38.2-71.9l0.8-1.5c0.1-0.2,0.2-0.3,0.3-0.5c0.1-0.1,0.3-0.4,0.5-0.5c0.2-0.1,0.5-0.2,0.6-0.2
			c0.1,0,0.2,0,0.4,0h19.9c1.1,0,1.6,1.2,1.2,2.1l-1.4,2.6l-19.8,37.3c-0.9,1.7-0.9,1.7,0.8,1.7h11.4c1.7,0,1.7,0,2.6-1.7l6.7-12.6
			c0.3-0.5,0.6-0.8,1.3-0.8h12.1c1.3,0,1.6,1.5,1.2,2.2l-18.8,35.4c-0.3,0.6-0.6,0.8-1.3,0.8h-12.1c-1,0-1.8-1.1-1.3-2.1
			c0,0,6.8-12.8,7.7-14.5c0.9-1.7,0.9-1.7-0.8-1.7h-11.4c-1.7,0-1.7,0-2.6,1.7l-11,20.7c-0.9,1.7-0.9,1.7,0.8,1.7H806.4z"/>
		<path class="st2" d="M191,74.5h18.6c0.8,0,0.8,0.3,0.4,1l-2.3,3.7c-0.4,0.6-0.4,0.6-1.1,0.6h-18.6c-0.8,0-0.8-0.3-0.4-0.9l2.3-3.7
			C190.3,74.6,190.4,74.5,191,74.5"/>
		<path class="st2" d="M182.3,89h18.6c0.8,0,0.8,0.3,0.4,1l-18.9,31.5c-0.4,0.6-0.4,0.6-1.1,0.6h-18.6c-0.8,0-0.8-0.3-0.5-0.9
			l18.9-31.5C181.6,89.1,181.7,89,182.3,89"/>
		<path class="st2" d="M477.2,89c0,0,0.4,0,0.8,0.1c0.5,0.1,1.1,0.3,1.5,0.7c1,0.9,1.4,2.5-0.3,5.3l-15.8,26.3
			c-0.3,0.6-0.4,0.6-1.1,0.6h-18.6c-0.8,0-0.9-0.2-0.5-0.9L456.7,99c0.2-0.3,2.8-4.6-0.9-4.6h-32.3c0,0-0.4,0-1,0
			c-0.6,0.1-1.5,0.2-2.5,0.5c-2,0.6-4.3,1.8-5.9,4.3c-2.9,4.7-13,21.7-13.3,22.2c-0.3,0.6-0.4,0.6-1.1,0.6h-18.6
			c-0.8,0-0.8-0.3-0.5-0.9l18.9-31.5c0.3-0.6,0.4-0.7,1.1-0.7H477.2z"/>
		<path class="st2" d="M665,89c0,0,0.4,0,0.8,0.1c0.5,0.1,1.1,0.3,1.5,0.7c1,0.9,1.4,2.5-0.3,5.3l-3.8,6.4c-0.4,0.6-0.4,0.6-1.1,0.6
			h-18.6c-0.8,0-0.8-0.3-0.5-0.9l1.4-2.3c0.2-0.3,2.8-4.6-0.9-4.6h-32.3c0,0-0.4,0-1,0c-0.6,0.1-1.5,0.2-2.5,0.5
			c-2,0.6-4.3,1.8-5.9,4.3c-2.9,4.7-13,21.6-13.3,22.2c-0.3,0.6-0.4,0.6-1.1,0.6h-18.6c-0.9,0-0.8-0.4-0.4-1l18.9-31.5
			c0.3-0.6,0.4-0.7,1.1-0.7H665z"/>
		<path class="st3" d="M399.5,70.4c0.9,0,0.8,0.4,0.4,0.9l-30.1,50.1c-0.4,0.6-0.4,0.6-1.1,0.6h-76.7c-0.1,0-5.4-0.5-1.2-7.5
			c0.2-0.4,2.2-4.5,11.4-19c0.2-0.3,0.6-0.9,1-1.6c0.5-0.7,1.1-1.5,1.8-2.2c1.5-1.5,3.6-2.8,6.4-2.8h55.5c0.6,0,1.3,0.2,1.8,0.3
			c0.1,0,0.2,0.1,0.2,0.1c0.1-0.1,0.1-0.2,0.2-0.3L379.9,71c0.4-0.6,0.4-0.7,1.1-0.7H399.5z M312.7,110.8c-3.2,5.4,3.6,5,3.6,5h32.8
			c4.5,0,7.2-4.9,7.2-4.9l7-11.7c3.1-5.2-1.3-5-1.3-5h-32.8c-7,0-9.6,5-9.6,5L312.7,110.8z"/>
		<path class="st3" d="M549.8,101.5l2.1-3.6c0,0,2.7-3.8-1.3-3.8h-36.5c-3.7,0-5.8,3.8-5.8,3.8l-2.7,4.4c-0.3,0.5-0.3,0.5,0.2,0.5
			h41.3C549.1,103,549.8,101.5,549.8,101.5 M503.2,107.5c-0.1,0-0.2,0-0.3,0c-0.1,0-0.1,0-0.1,0.1c0,0.1-0.1,0.2-0.2,0.3l-1.9,3.2
			c-0.2,0.3-2.5,4.3,0.4,4.3h55.3c0.8,0,0.8,0.3,0.4,0.9l-3,5c-0.3,0.6-0.5,0.6-1.1,0.6l-73.2,0.1c0,0-0.3,0-0.8-0.1
			c-0.4-0.1-1-0.3-1.5-0.8c-1-0.9-1.4-2.5,0.3-5.3c0.2-0.3,3-5.6,12.7-21.1c3.6-5.7,8.9-5.9,9-5.9H571c2.7,0,3.5,1.4,3.4,2.9
			c-0.1,1.4-0.9,2.9-1.1,3.2l-5.6,9.3c0,0-1.8,3.1-6,3.1L503.2,107.5z"/>
		<path class="st2" d="M103.8,115.5h50.4c0.4,0,0.6,0.1,0.6,0.2c0.1,0.2,0,0.4-0.2,0.8l-3,5c-0.3,0.6-0.4,0.6-1.1,0.6H77
			c-0.4,0-0.6-0.1-0.7-0.2c-0.1-0.2,0-0.4,0.2-0.7l35.2-58.6c0.1-0.1,0.2-0.3,0.2-0.3c0.1-0.1,0.1-0.2,0.3-0.2
			c0.1,0,0.2-0.1,0.3-0.1c0.1,0,0.2,0,0.3,0h18.9c0.2,0,0.3,0,0.4,0c0.4,0.1,0.4,0.4,0.1,0.9l-31.6,52.6l-0.1,0.1H103.8z"/>
		<path class="st2" d="M289.9,89c0,0,0.4,0,0.8,0.1c0.3,0.1,0.7,0.2,1,0.4c0.2,0.1,0.4,0.2,0.5,0.4c1,0.9,1.4,2.5-0.3,5.3
			l-15.8,26.3c-0.3,0.6-0.4,0.6-1.1,0.6h-18.7c-0.4,0-0.6-0.1-0.7-0.2c-0.1-0.2,0-0.4,0.2-0.7L269.3,99c0.1-0.2,0.9-1.5,1.1-2.6
			c0.1-1-0.2-1.9-2-1.9h-32.3c0,0-0.4,0-1,0c-0.6,0.1-1.5,0.2-2.5,0.5c-2,0.6-4.3,1.8-5.9,4.3c-2.9,4.7-13,21.7-13.3,22.2
			c-0.3,0.6-0.4,0.6-1.1,0.6h-18.6c-0.4,0-0.6-0.1-0.7-0.2c-0.1-0.2,0-0.4,0.2-0.7l18.9-31.4c0.3-0.6,0.4-0.7,1.1-0.7H289.9z"/>
	</g>
</g>
</svg>
