<?xml version="1.0" encoding="UTF-8"?>
<svg id="Ebene_1" xmlns="http://www.w3.org/2000/svg" version="1.1" viewBox="0 0 553.5 147.4">
  <!-- Generator: Adobe Illustrator 29.3.0, SVG Export Plug-In . SVG Version: 2.1.0 Build 146)  -->
  <defs>
    <style>
      .st0 {
        fill: #237ba2;
      }

      .st1 {
        fill: #1d1d1b;
      }

      .st2 {
        fill: #fff;
      }
    </style>
  </defs>
  <g>
    <path d="M215.6,118.4h-1.8v-8.7h-1.1v-1.6h1.1v-3.7h1.8v3.7h1.8v1.6h-1.8v8.7Z"/>
    <path d="M225,109.2h0c.6-.8,1.1-1.4,2.3-1.4s1.1.2,1.6.5l-.8,1.6c-.4-.2-.6-.5-1.1-.5-1.9,0-2,2.5-2,3.8v5.2h-1.8v-10.3h1.8v1.1Z"/>
    <path d="M244,118.4h-1.8v-1.4h0c-.9,1.1-2.1,1.7-3.6,1.7-3,0-4.9-2.6-4.9-5.4s1.9-5.5,5-5.5,2.7.7,3.5,1.8h0v-1.5h1.8v10.3ZM235.5,113.1c0,2,1.2,3.9,3.4,3.9s3.5-1.8,3.5-3.9-1.3-3.7-3.5-3.7-3.4,1.8-3.4,3.7Z"/>
    <path d="M259.2,111.1h0c-.8-1-1.8-1.7-3.2-1.7-2.1,0-3.7,1.8-3.7,3.8s1.4,3.8,3.6,3.8,2.5-.7,3.4-1.8h0v2.4c-1,.7-2,1.1-3.3,1.1-3.1,0-5.5-2.3-5.5-5.5s2.5-5.5,5.5-5.5,2.3.4,3.2,1v2.3Z"/>
    <path d="M267.9,111.9l3.8-3.8h2.4l-4.4,4.4,5.3,5.9h-2.3l-4.2-4.7-.5.5v4.2h-1.8v-18.1h1.8v11.6Z"/>
    <path class="st0" d="M294.2,112.5c0,1.2-1,2.2-2.2,2.2s-2.2-1-2.2-2.2,1-2.1,2.2-2.1,2.2,1,2.2,2.1Z"/>
    <path d="M308.2,109.5h0c.9-1.1,2.1-1.8,3.6-1.8,3,0,4.9,2.6,4.9,5.5s-1.9,5.4-5,5.4-2.7-.6-3.5-1.7h0v7.3h-1.8v-16.1h1.8v1.5ZM308.1,113.1c0,2,1.2,3.9,3.4,3.9s3.5-1.8,3.5-3.9-1.3-3.7-3.5-3.7-3.4,1.8-3.4,3.7Z"/>
    <path d="M325.1,109.2h0c.6-.8,1.1-1.4,2.3-1.4s1.1.2,1.6.5l-.8,1.6c-.4-.2-.6-.5-1.1-.5-1.9,0-2,2.5-2,3.8v5.2h-1.8v-10.3h1.8v1.1Z"/>
    <path d="M333.6,113.2c0-3,2.4-5.5,5.4-5.5s5.4,2.4,5.4,5.5-2.4,5.4-5.4,5.4-5.4-2.4-5.4-5.4ZM335.4,113.2c0,2.1,1.5,3.8,3.7,3.8s3.7-1.7,3.7-3.8-1.5-3.8-3.7-3.8-3.7,1.7-3.7,3.8Z"/>
    <path d="M352.9,118.4h-1.8v-8.7h-1.1v-1.6h1.1v-3.7h1.8v3.7h1.8v1.6h-1.8v8.7Z"/>
    <path d="M361.6,113.6c0,1.9,1.4,3.5,3.4,3.5s2.5-.9,3.1-2.1l1.5.9c-1,1.8-2.7,2.9-4.8,2.9-3.1,0-5.1-2.4-5.1-5.3s1.8-5.6,5-5.6,5.1,2.7,4.9,5.8h-8.1ZM367.8,112.1c-.2-1.5-1.5-2.7-3-2.7s-2.9,1.2-3.1,2.7h6.2Z"/>
    <path d="M384.1,111.1h0c-.8-1-1.8-1.7-3.2-1.7-2.1,0-3.7,1.8-3.7,3.8s1.4,3.8,3.6,3.8,2.5-.7,3.4-1.8h0v2.4c-1,.7-2,1.1-3.3,1.1-3.1,0-5.5-2.3-5.5-5.5s2.5-5.5,5.5-5.5,2.3.4,3.2,1v2.3Z"/>
    <path d="M393,118.4h-1.8v-8.7h-1.1v-1.6h1.1v-3.7h1.8v3.7h1.8v1.6h-1.8v8.7Z"/>
    <path class="st0" d="M414.1,112.5c0,1.2-1,2.2-2.2,2.2s-2.2-1-2.2-2.2,1-2.1,2.2-2.1,2.2,1,2.2,2.1Z"/>
    <path d="M428.1,109.2h0c.6-.8,1.1-1.4,2.3-1.4s1.1.2,1.6.5l-.8,1.6c-.4-.2-.6-.5-1.1-.5-1.9,0-2,2.5-2,3.8v5.2h-1.8v-10.3h1.8v1.1Z"/>
    <path d="M438.5,113.6c0,1.9,1.4,3.5,3.4,3.5s2.5-.9,3.1-2.1l1.5.9c-1,1.8-2.7,2.9-4.8,2.9-3.1,0-5.1-2.4-5.1-5.3s1.8-5.6,5-5.6,5.1,2.7,4.9,5.8h-8.1ZM444.8,112.1c-.2-1.5-1.5-2.7-3-2.7s-2.9,1.2-3.1,2.7h6.2Z"/>
    <path d="M461.1,111.1h0c-.8-1-1.8-1.7-3.2-1.7-2.1,0-3.7,1.8-3.7,3.8s1.4,3.8,3.6,3.8,2.5-.7,3.4-1.8h0v2.4c-1,.7-2,1.1-3.3,1.1-3.1,0-5.5-2.3-5.5-5.5s2.5-5.5,5.5-5.5,2.3.4,3.2,1v2.3Z"/>
    <path d="M467.2,113.2c0-3,2.4-5.5,5.4-5.5s5.4,2.4,5.4,5.5-2.4,5.4-5.4,5.4-5.4-2.4-5.4-5.4ZM468.9,113.2c0,2.1,1.5,3.8,3.7,3.8s3.7-1.7,3.7-3.8-1.5-3.8-3.7-3.8-3.7,1.7-3.7,3.8Z"/>
    <path d="M487.7,115l3.1-6.9h2l-5.1,11-5.1-11h2l3.1,6.9Z"/>
    <path d="M499.3,113.6c0,1.9,1.4,3.5,3.4,3.5s2.5-.9,3.1-2.1l1.5.9c-1,1.8-2.7,2.9-4.8,2.9-3.1,0-5.1-2.4-5.1-5.3s1.8-5.6,5-5.6,5.1,2.7,4.9,5.8h-8.1ZM505.6,112.1c-.2-1.5-1.5-2.7-3-2.7s-2.9,1.2-3.1,2.7h6.2Z"/>
    <path d="M515.7,109.2h0c.6-.8,1.1-1.4,2.3-1.4s1.1.2,1.6.5l-.8,1.6c-.4-.2-.6-.5-1.1-.5-1.9,0-2,2.5-2,3.8v5.2h-1.8v-10.3h1.8v1.1Z"/>
  </g>
  <path class="st0" d="M108.9,24c-31.6,0-66,19.2-77.9,29l-4.6,3.8c-1.4,1.2-3.1,2.4-3.1,4.4,0,2,1.7,3.3,3.1,4.4l4.6,3.8c8.6,7.1,29.2,19.2,51.9,25.3v-33.5c0-14.4,11.7-26,26-26s26,11.7,26,26-11.7,26-26,26-10.7-1.7-14.9-4.7v14.5c5,.8,10,1.3,14.9,1.3,20.5,0,37.2-16.6,37.2-37.2s-16.6-37.2-37.2-37.2"/>
  <path class="st2" d="M108.9,46.3c-8.2,0-14.9,6.7-14.9,14.9s6.7,14.9,14.9,14.9,14.9-6.7,14.9-14.9-6.7-14.9-14.9-14.9"/>
  <path class="st1" d="M108.9,46.3c-8.2,0-14.9,6.7-14.9,14.9s6.7,14.9,14.9,14.9,14.9-6.7,14.9-14.9-6.7-14.9-14.9-14.9M94,97.1c-3.7-.6-7.5-1.4-11.2-2.4v-33.5c0-14.4,11.7-26,26-26s26,11.7,26,26-11.7,26-26,26-10.7-1.7-14.9-4.7v14.5h0Z"/>
  <g>
    <path class="st1" d="M364.8,31.6c0-1.2.4-2.2,1.3-3.1.9-.9,1.9-1.3,3.1-1.3s2.3.4,3.1,1.3c.9.8,1.3,1.9,1.3,3.1s-.4,2.3-1.3,3.1c-.8.9-1.9,1.3-3.1,1.3s-2.3-.4-3.1-1.3c-.9-.9-1.3-1.9-1.3-3.2"/>
    <rect class="st1" x="365.4" y="44.3" width="7.6" height="33.5"/>
    <polygon class="st1" points="426.3 44.3 416.8 63.4 406.6 44.3 397.7 44.3 412.7 71.4 402.5 90.4 411.2 90.4 435 44.3 426.3 44.3"/>
    <path class="st0" d="M204.7,61c0,5-1.7,9.2-5.1,12.6-3.4,3.4-7.7,5-12.7,5s-7-1-9.8-3v14.7h-7.6v-29.6c0-4.8,1.7-8.9,5.1-12.3,3.4-3.4,7.6-5.1,12.5-5.1s9.1,1.7,12.6,5.1c3.4,3.4,5.1,7.6,5.1,12.5M179.9,68.1c1.9,1.9,4.2,2.9,7.1,2.9s5.2-1,7.2-2.9c1.9-1.9,2.9-4.3,2.9-7.1s-1-5.2-2.9-7.1c-1.9-1.9-4.3-2.9-7.1-2.9s-5.1,1-7.1,2.9c-1.9,1.9-2.9,4.2-2.9,7s1,5.3,2.8,7.2"/>
    <polygon class="st1" points="390 77.7 382.4 77.7 382.4 51.9 377.1 51.9 377.1 44.3 382.4 44.3 382.4 31.6 390 31.6 390 44.3 395.3 44.3 395.3 51.9 390 51.9 390 77.7"/>
    <path class="st0" d="M208.2,60.7c0-4.8,1.7-8.9,5.1-12.3,3.4-3.4,7.6-5.1,12.5-5.1s9.1,1.7,12.6,5.1c3.4,3.4,5.1,7.6,5.1,12.5s-1.7,9.2-5.1,12.6c-3.4,3.4-7.7,5-12.7,5s-9.1-1.7-12.5-5.1c-3.3-3.4-5-7.6-5-12.7M218.7,68.1c1.9,1.9,4.2,2.9,7.1,2.9s5.2-1,7.2-2.9c1.9-1.9,2.9-4.3,2.9-7.1s-1-5.2-2.9-7.1c-1.9-1.9-4.3-2.9-7.1-2.9s-5.1,1-7.1,2.9c-1.9,1.9-2.9,4.2-2.9,7s1,5.3,2.8,7.2"/>
    <polygon class="st0" points="259.1 63.3 268.5 41.3 278 63.3 286.7 44.3 295.3 44.3 277.8 80.2 268.5 58.7 259.1 80.2 241.7 44.3 250.4 44.3 259.1 63.3"/>
    <g>
      <path class="st1" d="M313,78.6c-4,0-7.3-1.1-9.9-3.4-1.6-1.4-2.7-3-3.3-4.7-.6-1.5-1-3.9-1-6.9v-19.4h7.6v19.2c0,5.5,2.2,8.4,6.5,8.4s6.5-2.9,6.5-8.4v-19.2h7.6v19.4c0,3.1-.3,5.4-1,6.9-.7,1.7-1.7,3.3-3.3,4.7-2.6,2.3-5.9,3.4-9.9,3.4"/>
      <path class="st1" d="M346.1,43.4c4,0,7.3,1.1,9.9,3.4,1.6,1.4,2.7,3,3.3,4.7.6,1.5,1,3.9,1,6.9v19.4h-7.6v-19.2c0-5.5-2.2-8.4-6.5-8.4s-6.5,2.9-6.5,8.4v19.2h-7.6v-19.4c0-3.1.3-5.4,1-6.9.7-1.7,1.7-3.3,3.3-4.7,2.6-2.3,5.9-3.4,9.9-3.4"/>
    </g>
  </g>
  <path class="st1" d="M271.6,103h0,0Z"/>
</svg>