<svg xmlns="http://www.w3.org/2000/svg" xmlns:xlink="http://www.w3.org/1999/xlink" width="72.994" height="30" viewBox="0 0 72.994 30"><defs><clipPath id="a"><rect width="72.994" height="30" fill="#008bd2"/></clipPath></defs><g transform="translate(0 0)" clip-path="url(#a)"><path d="M374.238,77.123c-1.667-.356-3.2-.745-4.788-1.185l.069-5.16-2.856-11.189c1.367-.435,2.665-.77,4.1-1.142l1.074,3.685L373.42,57.8c1.42-.315,3.091-.622,4.563-.872l-3.745,13.265Z" transform="translate(-357.414 -55.489)" fill="#008bd2"/><path d="M1913.232,52.459v5.1c-2.362.51-4.99.933-7.489,1.263l0-21.951c1.57.208,3.28.453,4.8.733V53s1.131-.18,2.688-.543" transform="translate(-1857.668 -35.937)" fill="#008bd2"/><path d="M2248.591,93.281c1.565.353,3.361.744,4.855,1.171v16.767c-1.5.427-3.286.818-4.853,1.17Z" transform="translate(-2191.868 -90.926)" fill="#008bd2"/><path d="M9.273,153.724c-.675.217-1.269.379-1.935.619V165a90.8,90.8,0,0,0,29.154,4.557,91.537,91.537,0,0,0,28.893-4.479V153.9l-2.658-.849v-4.791a70.763,70.763,0,0,1,10.267,3.924v4.752l-2.839-1.292v12.635a89.2,89.2,0,0,1-33.66,6.238,88.275,88.275,0,0,1-33.964-6.394v-11.8c-.855.361-1.711.71-2.529,1.1v-5.313a67.22,67.22,0,0,1,8.044-3.175Z" transform="translate(0 -144.519)" fill="#008bd2"/><path d="M860.867,26.433v3.575h.859a1.045,1.045,0,0,0,1.076-1.147l-.007-1.772c0-.859-1.032-.785-1.032-.785Zm-.007,17.486c-1.583-.179-3.249-.416-4.782-.668l.01-21.086q2.876-.469,5.865-.767c4.406-.369,5.494,2.661,5.605,3.372v6.357a2.267,2.267,0,0,1-1.348,1.5,2.251,2.251,0,0,1,1.348,1.941v9.889c-1.652-.07-3.162-.179-4.772-.328V36.217c0-1.015-.561-1.311-1.124-1.311h-.792Z" transform="translate(-834.483 -20.827)" fill="#008bd2" fill-rule="evenodd"/><path d="M1374.945,18.687c-.005,3.425-2.781,5.168-6.2,5.168s-6.2-1.749-6.2-5.178V6.205a6.2,6.2,0,0,1,12.409,0Zm-7.308-12.739a1.1,1.1,0,0,1,2.207,0V17.714c-.011.6-.5.874-1.1.874s-1.092-.275-1.1-.874Z" transform="translate(-1328.164 -0.001)" fill="#008bd2" fill-rule="evenodd"/></g></svg>